<svg xmlns="http://www.w3.org/2000/svg" viewBox="0 0 1600 900"><rect width="1600" height="900" fill="#F6F1E8"/><rect x="40" y="40" width="740" height="820" rx="30" fill="#fff"/><rect x="820" y="40" width="740" height="820" rx="30" fill="#fff"/><rect width="700" height="650" rx="24" fill="#fff"/><rect y="468" width="700" height="182.00000000000003" fill="#EADFCB"/><path d="M0 162.5 H700" stroke="#CC7722" stroke-width="18" opacity=".16"/><path d="M70 162.5 v292.5 M244.99999999999997 162.5 v292.5 M455 162.5 v292.5 M630 162.5 v292.5" stroke="#75553F" stroke-width="10" opacity=".25"/><path d="M35 162.5 L126 78 L217 162.5 L308 78 L398.99999999999994 162.5 L489.99999999999994 78 L581 162.5 L672 78" fill="none" stroke="#143B7D" stroke-width="12" opacity=".25"/><g transform="translate(840 120)"><rect width="680" height="540" rx="24" fill="#fff"/><rect y="388.8" width="680" height="151.20000000000002" fill="#EADFCB"/><path d="M0 135 H680" stroke="#CC7722" stroke-width="18" opacity=".16"/><path d="M68 135 v243 M237.99999999999997 135 v243 M442 135 v243 M612 135 v243" stroke="#75553F" stroke-width="10" opacity=".25"/><path d="M34 135 L122.39999999999999 64.8 L210.8 135 L299.2 64.8 L387.59999999999997 135 L475.99999999999994 64.8 L564.4 135 L652.8 64.8" fill="none" stroke="#143B7D" stroke-width="12" opacity=".25"/><g transform="translate(312.8 356.40000000000003) scale(0.86)"><circle cx="0" cy="-54" r="19" fill="#143B7D" opacity=".92"/><path d="M-24-32 Q0-46 24-32 L30 45 Q0 58-30 45Z" fill="#143B7D" opacity=".82"/><path d="M-14 46 L-19 100 M14 46 L19 100 M-24-12 L-58 26 M24-12 L58 26" stroke="#143B7D" stroke-width="12" stroke-linecap="round" opacity=".9"/><text x="0" y="126" text-anchor="middle" font-family="Arial" font-size="22" font-weight="800" fill="#172235">SOYA</text></g><g transform="translate(210.8 378.40000000000003) scale(0.64)"><circle cx="0" cy="-54" r="19" fill="#CC7722" opacity=".92"/><path d="M-24-32 Q0-46 24-32 L30 45 Q0 58-30 45Z" fill="#CC7722" opacity=".82"/><path d="M-14 46 L-19 100 M14 46 L19 100 M-24-12 L-58 26 M24-12 L58 26" stroke="#CC7722" stroke-width="12" stroke-linecap="round" opacity=".9"/><text x="0" y="126" text-anchor="middle" font-family="Arial" font-size="22" font-weight="800" fill="#172235">CILLO</text></g><g transform="translate(414.8 391.40000000000003) scale(0.52)"><circle cx="0" cy="-54" r="19" fill="#D4AF37" opacity=".92"/><path d="M-24-32 Q0-46 24-32 L30 45 Q0 58-30 45Z" fill="#D4AF37" opacity=".82"/><path d="M-14 46 L-19 100 M14 46 L19 100 M-24-12 L-58 26 M24-12 L58 26" stroke="#D4AF37" stroke-width="12" stroke-linecap="round" opacity=".9"/><text x="0" y="126" text-anchor="middle" font-family="Arial" font-size="22" font-weight="800" fill="#172235">SIDAAT</text></g></g><text x="90" y="130" font-family="Arial" font-size="22" font-weight="900" fill="#CC7722">DOUBLE PAGE 01</text><text x="90" y="190" font-family="Georgia" font-size="52" font-weight="700" fill="#143B7D">Le marché du matin</text><foreignObject x="90" y="250" width="620" height="500"><div xmlns="http://www.w3.org/1999/xhtml" style="font:32px/1.55 Georgia;color:#172235">Le marché s’ouvre avec le soleil. SOYA avance légèrement devant ; CILLO observe ; SIDAAT tient son panier.</div></foreignObject><text x="840" y="760" font-family="Arial" font-size="20" fill="#75553F">Composition panoramique · respiration · SOYA centre visuel</text></svg>